PathFileType	4	(X/Y/Z)	31_1_8_p0_0-207.trc
DataRate	CameraRate	NumFrames	NumMarkers	Units	OrigDataRate	OrigDataStartFrame	OrigNumFrames
59.0	59.0	7	27	m	59.0	156	208
Frame#	Time	RHip			RKnee			RAnkle			RBigToe			RSmallToe			RHeel			LHip			LKnee			LAnkle			LBigToe			LSmallToe			LHeel			Neck			Head			Nose			RShoulder			RElbow			RWrist			RThumb			RIndex			RPinky			LShoulder			LElbow			LWrist			LThumb			LIndex			LPinky			
		X1	Y1	Z1	X2	Y2	Z2	X3	Y3	Z3	X4	Y4	Z4	X5	Y5	Z5	X6	Y6	Z6	X7	Y7	Z7	X8	Y8	Z8	X9	Y9	Z9	X10	Y10	Z10	X11	Y11	Z11	X12	Y12	Z12	X13	Y13	Z13	X14	Y14	Z14	X15	Y15	Z15	X16	Y16	Z16	X17	Y17	Z17	X18	Y18	Z18	X19	Y19	Z19	X20	Y20	Z20	X21	Y21	Z21	X22	Y22	Z22	X23	Y23	Z23	X24	Y24	Z24	X25	Y25	Z25	X26	Y26	Z26	X27	Y27	Z27	
156	2.6440677966101696	0.15808089789136914	0.5762128649947575	0.1814864410339315	0.1379522419836248	0.7612320740155508	0.5455004682129514	0.11005949984856755	1.0689769244437421	0.922573555488546	0.07279995985184175	0.8295851980942529	1.0041704169717576	0.1472622657151424	0.8723912972627529	1.0020321232654168	0.09791733376988906	1.164018097654943	0.9577098282567182	-0.044645760762839465	0.5679281014186567	0.15454544406842713	-0.06739210802737927	0.8125712088643476	0.5298838541669584	-0.08657360857438164	1.0266422234758439	0.9078701054006085	-0.07643318470419345	0.8315058073620609	0.9859063602789513	-0.13760394779824497	0.9073075967541783	0.9782337645979282	-0.06934892037058346	1.1145784459353176	0.9482574460694588	0.17863461468980965	0.31125365544640154	-0.32724423469471675	0.4497230799459266	0.1889129340600291	-0.44032619491711766	0.31113827150295875	0.2066564872598131	-0.3054084319901637	0.2927721344806527	0.42477177163383356	-0.2622272409303384	0.26157329774122223	0.45596268770777615	0.004226002883198034	0.3187192402479438	0.3452366008442695	-0.16963363120709785	0.3267073345953471	0.2850386122369067	-0.26630547965788126	0.3745613422923452	0.2836545663413341	-0.2906624007677916	0.3764873819633175	0.2683362801782606	-0.23967393611600413	0.04262957029145459	0.2901560977879486	-0.34479578665611565	0.06639682401738485	0.3070560527263221	-0.05275925898109137	0.2563125645813909	0.2968839360745541	-0.20113453701422015	0.33339912708893904	0.2885129755019873	-0.28396717462728355	0.35447837992238795	0.28536228764467375	-0.29711282721479976	0.3780658841508712	0.2817689300661465	-0.2359024029857701
157	2.6610169491525424	0.15354866864269293	0.5635031485851354	0.18312466763513746	0.1333075903959877	0.7470664999769269	0.5455306062660852	0.1100747132600249	1.068882544985564	0.9224938879578817	0.0726784747248834	0.8297020497971767	1.0042321562303989	0.1472709634519463	0.8726215679114911	1.0019990140910249	0.09792683804147558	1.1639401561828493	0.9575869320698855	-0.044667812797222824	0.567929868486212	0.15446331978801392	-0.0674286126822201	0.8124343014077845	0.529797552343266	-0.08658620885491415	1.02651573616197	0.9078610056500973	-0.07641466223535384	0.8313991253989524	0.9858919552421562	-0.13756145708808576	0.9072689604813334	0.9782059985993666	-0.06942398535601982	1.1144548556529907	0.9483461426004833	0.1786929803325668	0.31123106899888214	-0.3272094409813946	0.4499139670830283	0.18925991998399289	-0.4404272824799467	0.31127349999530407	0.2069470455050148	-0.3055476642725138	0.2870194332793323	0.411190468262389	-0.26197818759158753	0.2667959117948311	0.46984541962316745	0.00506675631297933	0.31903424723875834	0.3472170578383357	-0.16658593518529174	0.3269406430344185	0.28538816066885375	-0.266468040100569	0.37893372078440574	0.2832681599940411	-0.2902730010792952	0.37670312293722397	0.2674071970458044	-0.2428098452749519	0.042621558880074066	0.29029661214679026	-0.34484954720364835	0.06706549645481388	0.30827561281885124	-0.05271599264180326	0.25641515398382575	0.2967585426004662	-0.20105884306867383	0.333424375346583	0.28971230902751177	-0.2808894874443313	0.3589399580561716	0.2872016912988188	-0.29721912079718255	0.37831977181152915	0.282082244356161	-0.23544157862743764
158	2.6779661016949152	0.1535508447016055	0.5636010236872541	0.18307096941630369	0.1333852437665787	0.7473341283978969	0.5457069486614674	0.11008483546078793	1.0688592109575696	0.9225025095835467	0.07270407361415092	0.8299116944019858	1.0042964011976279	0.1471912474891678	0.8724621002055377	1.0020864529265814	0.09796431187344122	1.1638612053607331	0.9574910382965158	-0.044638626215802946	0.5679723805471872	0.1544367533221282	-0.06740292320502055	0.8125676000890093	0.5298436560693358	-0.08655209763487182	1.0265084399439566	0.9078522407651619	-0.07638606152289769	0.8313977400910119	0.985895089157333	-0.13281794732386	0.8912618395799689	0.9768084392340362	-0.069336865499307	1.1143904306282757	0.9482267200669704	0.1829253686517634	0.312844352782919	-0.3277155085298283	0.4499259725352125	0.18926086821372443	-0.44059236345300173	0.3113458828788147	0.20690000757334326	-0.3056734905928686	0.2924071340853764	0.4225504757806125	-0.2651825217423075	0.26678546319812524	0.46977917286390486	0.005116652831943986	0.3198237370254271	0.3486176186008422	-0.16700824890834878	0.327031203940509	0.2873820473769113	-0.2638707463848739	0.3791605208557111	0.28337809545490644	-0.29004082591841457	0.3767788655991053	0.26919059096268744	-0.2394407035789697	0.042265343659818135	0.2913238891667641	-0.3415362471371556	0.06709519410251119	0.3082680305245734	-0.05265276740002282	0.25893454379750447	0.2841218510928162	-0.19698554538188318	0.3329616072283568	0.28866015575078496	-0.2805465988143215	0.3593233785923726	0.28929155118681094	-0.2948151649419819	0.37860608768201703	0.2839176326899753	-0.2329439823244127
159	2.694915254237288	0.15360651245679074	0.5637216815325874	0.18304393882044936	0.13398203844029352	0.7505177249789451	0.5494506806285341	0.11007044326449264	1.0688219780538055	0.9224751306791904	0.07680156133143756	0.8447724461592753	1.0059198790847192	0.14745006864247728	0.8737529696395274	1.0019365872228332	0.0979262851819997	1.1637355681999142	0.957453904959985	-0.044633665236188294	0.567944273851067	0.15445273541235133	-0.06742237070831227	0.8124902643881371	0.5298891068999508	-0.08656023126507154	1.0264512857945216	0.9077438209902812	-0.08044773316664675	0.8475807252756454	0.9873957556999488	-0.13763286639921757	0.9074655379879216	0.97820139905352	-0.06932565005154834	1.1142001878606413	0.9480818258829181	0.18295319911284608	0.31288054193928033	-0.3278990127395318	0.44983714374463346	0.18928289939811688	-0.4406532436532245	0.3113217164556142	0.2054043082801354	-0.30880316881515335	0.2924671606566132	0.4224278672564093	-0.26506605621365364	0.26651493108478014	0.4675106187693252	0.002010000938628438	0.31953750199769526	0.34511646719857897	-0.17363557651943465	0.326940110234034	0.287238069207388	-0.2638739242158855	0.3842341852856754	0.2940663657128042	-0.297415642034396	0.377171403311291	0.266436908557377	-0.24652562105727271	0.04256605014464323	0.29133017739038514	-0.3418798443317025	0.06691581088763313	0.3058223780409267	-0.05584191416245384	0.2589724146995567	0.283961974402848	-0.1969696629777651	0.3346948274933887	0.27462747928345255	-0.27931167671459245	0.35926561353752917	0.2875843241628779	-0.29705999779253434	0.3829298899782778	0.29190634664611803	-0.23813575118912245
160	2.711864406779661	0.1581402931832691	0.5762994497760494	0.18133193073967976	0.13335603114328065	0.7472800270414546	0.5457105024494504	0.11007798289540822	1.068895802246253	0.9224996902193511	0.07286869188560083	0.8307952416103287	1.004264601375729	0.1473412040062814	0.8728993063858317	1.0019812239111925	0.09803778165127067	1.1637335356506244	0.9571705712581576	-0.04461762049166367	0.5679428559428812	0.15450794208154145	-0.06744488593508173	0.8125073929284998	0.5299286237576585	-0.0865340741872387	1.026434844411627	0.9077368870030017	-0.07644424800298413	0.8313977463905334	0.9858945203352377	-0.13757033230455798	0.9072667346589539	0.9781363992479455	-0.06924276040283313	1.1141490186405598	0.9478512556171377	0.1875839614416509	0.3224560613960737	-0.33439735002966475	0.450100345742813	0.1874541788973975	-0.4470017461027959	0.3114435419632299	0.20523829953850758	-0.30909262505558643	0.29233360937409103	0.42227943252933636	-0.2651092028174989	0.2664969345421796	0.46864515239882865	0.005406246200553445	0.31996365294961054	0.3469656298432253	-0.17070448350469045	0.3270113893125153	0.2857817139479273	-0.26739631090614524	0.3843673586001132	0.2942528190349051	-0.2974163995714153	0.37900622324310995	0.2535806865974118	-0.24184195025190036	0.04254054243914873	0.2912711175778514	-0.34179952345839	0.06686727340615252	0.3057591045327718	-0.05596128861734079	0.26304551708619894	0.28387251105653916	-0.19663666423331558	0.334591127120308	0.27430500607208885	-0.2771610992895687	0.35971193455923384	0.2894764208394355	-0.29464669439039093	0.3851472290148577	0.27224125557002915	-0.22866028773684027
161	2.7288135593220337	0.15821390824141754	0.5765273195106762	0.18143507842142098	0.13401969699820715	0.7504905339955336	0.5494494049928975	0.11002774868657812	1.0688584292236833	0.9224686950712848	0.07284361586825792	0.8300544905673023	1.0041552037607802	0.14737924042647635	0.872572940038857	1.0019287538541415	0.09804507496492224	1.1636855606876215	0.9569534823338811	-0.040838108659162355	0.5810043673458182	0.1527846954277492	-0.06738770000226325	0.8124737915753825	0.5299837551054317	-0.08648425170754552	1.0264252341052678	0.9075745986775586	-0.07640134466978636	0.8314194105553038	0.9857386948313194	-0.13279751037751508	0.8911153277065272	0.9766529062765802	-0.06919187118494254	1.1139578778249757	0.9477222433262497	0.1831316244935548	0.3119035847114291	-0.33117684871411474	0.44996554236593805	0.18547377664589038	-0.44989803971644515	0.31142035377941374	0.20512250999193898	-0.3091578905564704	0.2923128507002482	0.42236568519933304	-0.2650505189682088	0.2665699379543257	0.4689056063311265	0.005375768372016291	0.319273896181814	0.34566546101979445	-0.17006803017768485	0.32697060865000444	0.2839012746342581	-0.2703689877320802	0.3810411454770757	0.2695104404251551	-0.28913439077872455	0.37867311186789837	0.2539411114639135	-0.23829614833027185	0.04203711788697705	0.29228361501519207	-0.33827320489185325	0.06700308540247639	0.30798693732220017	-0.05275650748447307	0.2633403806736815	0.28602661789545963	-0.1934611619973572	0.3389337865866433	0.2766505034117999	-0.27970932723997133	0.3643793483128302	0.2906619512197764	-0.29392980991950285	0.386058167963276	0.2589472101460399	-0.22010349016290925
162	2.7457627118644066	0.15825181139402528	0.5764090950729132	0.18144864945085107	0.1333591854635791	0.7473838445985994	0.5457278920423606	0.11002350789963304	1.0687963625141859	0.9224038780138101	0.07309997022384708	0.8309620900114947	1.0041640958742388	0.14765386034198077	0.8734202635452404	1.0018386996182072	0.09799207259005936	1.163652173342218	0.9570029326714965	-0.04454005104332501	0.5678787534976681	0.15458835738916976	-0.06740545048062759	0.8124106070070445	0.5299523436966164	-0.08652834150774608	1.0264131108822456	0.9076220742967871	-0.07638284192891233	0.8314383887125468	0.985794763209397	-0.1328012320732953	0.8910863407793205	0.9767113803009652	-0.06924545920937977	1.1140585637958609	0.947818542506833	0.1831520545731362	0.3121113203178351	-0.33157601550009397	0.4498459544878074	0.18441331454603976	-0.45323189298405314	0.30269361365537883	0.1944276631936891	-0.30570472537817767	0.2884437770405766	0.42080307724560756	-0.2649688358859195	0.26673308328695083	0.469065705347152	0.005395038767262119	0.3193629773093302	0.34555241032610867	-0.17008278676227775	0.3269194369664022	0.28205000872552277	-0.2732597210678436	0.3796170139321603	0.2805023283477201	-0.2930931097096697	0.3791362970715071	0.25415737846600434	-0.23897471209728172	0.04198403533434217	0.28996593127324544	-0.3413302916026798	0.0669405086818329	0.3079340361707077	-0.05274095504334285	0.26567144109062696	0.2713179859061665	-0.19259218651380125	0.3340946190011473	0.2735758297372398	-0.2777869757440966	0.3638473281789466	0.28818943211715986	-0.2961921163288706	0.38592123198577755	0.25865356650873816	-0.21807458975428293
